#N canvas 907 149 786 877 10;
#X obj 157 291 ctlin;
#X obj 171 339 pack;
#X obj 129 316 / 127;
#X obj 315 431 * 8192;
#X obj 315 454 s k1;
#X obj 362 483 s k2;
#X obj 419 482 s k3;
#X obj 553 430 r k1;
#X floatatom 553 453 5 0 0 0 - - -, f 5;
#X floatatom 592 453 5 0 0 0 - - -, f 5;
#X obj 592 430 r k2;
#X floatatom 629 453 5 0 0 0 - - -, f 5;
#X obj 629 430 r k3;
#X obj 473 509 granular~;
#X msg 171 362 \$2 \$1;
#X obj 373 431 - 0.5;
#X obj 525 283 loadbang;
#X obj 321 369 route 48 49 50 51;
#X obj 362 460 * 2048;
#X obj 419 459 * 8192;
#X obj 322 574 delread~ delay_L 600;
#X obj 322 556 delwrite~ delay_L 600;
#X obj 352 600 *~ 0.5;
#X obj 547 606 *~ 0.5;
#X obj 517 580 delread~ delay_R 1200;
#X obj 517 562 delwrite~ delay_R 1200;
#X obj 432 632 +~;
#X obj 459 633 +~;
#X obj 453 720 writesf~ 2;
#X msg 541 636 open compo.wav;
#X msg 542 661 start;
#X msg 543 688 stop;
#X obj 473 532 *~ 1;
#X msg 590 361 \; pd dsp 1;
#X obj 566 331 pipe 3000;
#X msg 477 406 2 -1;
#X obj 477 429 unpack;
#X obj 297 725 outlet~;
#X obj 364 727 outlet~;
#X msg 417 308 load /home/antoine/dev/MODULAIRE/granular/kalimba.wav
;
#X obj 192 89 vsl 15 128 0 1 0 0 empty empty empty 0 -9 0 10 -262144
-1 -1 0 1;
#X msg 192 225 48 \$1;
#X obj 234 89 vsl 15 128 0 1 0 0 empty empty empty 0 -9 0 10 -262144
-1 -1 5400 1;
#X obj 278 89 vsl 15 128 0 1 0 0 empty empty empty 0 -9 0 10 -262144
-1 -1 12700 1;
#X obj 323 89 vsl 15 128 0 1 0 0 empty empty empty 0 -9 0 10 -262144
-1 -1 6800 1;
#X msg 234 225 49 \$1;
#X msg 278 225 50 \$1;
#X msg 323 225 51 \$1;
#X obj 400 789 dac~;
#X msg 391 155 freeze;
#X connect 0 0 2 0;
#X connect 0 1 1 1;
#X connect 1 0 14 0;
#X connect 2 0 1 0;
#X connect 3 0 4 0;
#X connect 7 0 8 0;
#X connect 8 0 13 1;
#X connect 9 0 13 2;
#X connect 10 0 9 0;
#X connect 11 0 13 3;
#X connect 12 0 11 0;
#X connect 13 0 32 0;
#X connect 14 0 17 0;
#X connect 15 0 18 0;
#X connect 16 0 39 0;
#X connect 16 0 34 0;
#X connect 16 0 35 0;
#X connect 17 0 3 0;
#X connect 17 1 15 0;
#X connect 17 2 19 0;
#X connect 17 3 32 1;
#X connect 18 0 5 0;
#X connect 19 0 6 0;
#X connect 20 0 22 0;
#X connect 22 0 26 0;
#X connect 22 0 25 0;
#X connect 23 0 27 1;
#X connect 23 0 21 0;
#X connect 24 0 23 0;
#X connect 26 0 28 0;
#X connect 26 0 37 0;
#X connect 26 0 48 0;
#X connect 27 0 28 1;
#X connect 27 0 38 0;
#X connect 27 0 48 1;
#X connect 29 0 28 0;
#X connect 30 0 28 0;
#X connect 31 0 28 0;
#X connect 32 0 21 0;
#X connect 32 0 25 0;
#X connect 32 0 26 1;
#X connect 32 0 27 0;
#X connect 34 0 33 0;
#X connect 35 0 36 0;
#X connect 36 0 13 1;
#X connect 36 1 13 2;
#X connect 39 0 13 0;
#X connect 40 0 41 0;
#X connect 41 0 17 0;
#X connect 42 0 45 0;
#X connect 43 0 46 0;
#X connect 44 0 47 0;
#X connect 45 0 17 0;
#X connect 46 0 17 0;
#X connect 47 0 17 0;
#X connect 49 0 13 0;
