#N canvas 1258 250 468 515 10;
#X obj 74 26 ctlin;
#X obj 88 74 pack;
#X obj 46 51 / 127;
#X obj 33 156 * 8192;
#X obj 33 179 s k1;
#X obj 80 208 s k2;
#X obj 137 207 s k3;
#X obj 271 155 r k1;
#X floatatom 271 178 5 0 0 0 - - -, f 5;
#X floatatom 310 178 5 0 0 0 - - -, f 5;
#X obj 310 155 r k2;
#X floatatom 347 178 5 0 0 0 - - -, f 5;
#X obj 347 155 r k3;
#X obj 191 234 granular~;
#X msg 88 97 \$2 \$1;
#X obj 91 156 - 0.5;
#X obj 243 8 loadbang;
#X obj 60 127 route 48 49 50 51;
#X obj 80 185 * 2048;
#X obj 137 184 * 8192;
#X obj 40 299 delread~ delay_L 600;
#X obj 40 281 delwrite~ delay_L 600;
#X obj 70 325 *~ 0.5;
#X obj 265 331 *~ 0.5;
#X obj 235 305 delread~ delay_R 1200;
#X obj 235 287 delwrite~ delay_R 1200;
#X obj 150 357 +~;
#X obj 177 358 +~;
#X obj 171 445 writesf~ 2;
#X obj 125 443 dac~;
#X msg 259 361 open compo.wav;
#X msg 260 386 start;
#X msg 261 413 stop;
#X obj 191 257 *~ 1;
#X msg 164 89 load kalimba.wav;
#X msg 308 86 \; pd dsp 1;
#X obj 284 56 pipe 3000;
#X msg 195 131 2 -1;
#X obj 195 154 unpack;
#X connect 0 0 2 0;
#X connect 0 1 1 1;
#X connect 1 0 14 0;
#X connect 2 0 1 0;
#X connect 3 0 4 0;
#X connect 7 0 8 0;
#X connect 8 0 13 1;
#X connect 9 0 13 2;
#X connect 10 0 9 0;
#X connect 11 0 13 3;
#X connect 12 0 11 0;
#X connect 13 0 33 0;
#X connect 14 0 17 0;
#X connect 15 0 18 0;
#X connect 16 0 34 0;
#X connect 16 0 36 0;
#X connect 16 0 37 0;
#X connect 17 0 3 0;
#X connect 17 1 15 0;
#X connect 17 2 19 0;
#X connect 17 3 33 1;
#X connect 18 0 5 0;
#X connect 19 0 6 0;
#X connect 20 0 22 0;
#X connect 22 0 26 0;
#X connect 22 0 25 0;
#X connect 23 0 27 1;
#X connect 23 0 21 0;
#X connect 24 0 23 0;
#X connect 26 0 28 0;
#X connect 26 0 29 0;
#X connect 27 0 28 1;
#X connect 27 0 29 1;
#X connect 30 0 28 0;
#X connect 31 0 28 0;
#X connect 32 0 28 0;
#X connect 33 0 21 0;
#X connect 33 0 25 0;
#X connect 33 0 26 1;
#X connect 33 0 27 0;
#X connect 34 0 13 0;
#X connect 36 0 35 0;
#X connect 37 0 38 0;
#X connect 38 0 13 1;
#X connect 38 1 13 2;
