#N canvas 961 88 959 991 10;
#X obj 524 516 granular~;
#X msg 73 178 load /home/antoine/dev/MODULAIRE/SAMPLES/agnus_dei.wav
;
#X obj 536 823 dac~;
#X obj 499 59 vsl 15 128 1.27 127 1 0 empty empty empty 0 -9 0 10 -262144
-1 -1 0 1;
#X obj 499 201 / 127;
#X obj 499 224 * 8192;
#X obj 551 58 vsl 15 128 0 127 0 0 empty empty empty 0 -9 0 10 -262144
-1 -1 12700 1;
#X obj 551 200 / 127;
#X obj 601 57 vsl 15 128 1.27 127 1 0 empty empty empty 0 -9 0 10 -262144
-1 -1 12700 1;
#X obj 601 199 / 127;
#X obj 601 222 * 8192;
#X obj 551 223 * 4096;
#X obj 551 246 - 2048;
#X floatatom 601 268 5 0 0 0 - - -, f 5;
#X floatatom 551 269 5 0 0 0 - - -, f 5;
#X msg 438 341 freeze;
#X obj 601 245 * 4;
#X obj 499 247 * 4;
#X floatatom 499 270 5 0 0 0 - - -, f 5;
#X msg 714 241 pin 0;
#X msg 759 241 goto 0;
#X msg 711 304 pin 1;
#X msg 756 304 goto 1;
#X msg 707 366 pin 2;
#X msg 752 366 goto 2;
#X obj 524 706 freeverb~;
#X msg 692 516 dry 1;
#X msg 708 416 pin 3;
#X msg 753 416 goto 3;
#X msg 737 545 roomsize 1;
#X obj 507 652 echo;
#X obj 366 506 hsl 128 15 0 1 0 0 empty empty empty -2 -8 0 10 -262144
-1 -1 0 1;
#X obj 450 530 sig~;
#X obj 450 553 lop~ 1;
#X obj 492 598 *~;
#X obj 523 599 *~;
#X obj 316 808 writesf~ 2;
#X msg 270 729 open anus.wav;
#X msg 403 685 start;
#X msg 411 718 stop;
#X connect 0 0 34 0;
#X connect 0 1 35 0;
#X connect 1 0 0 0;
#X connect 3 0 4 0;
#X connect 4 0 5 0;
#X connect 5 0 17 0;
#X connect 6 0 7 0;
#X connect 7 0 11 0;
#X connect 8 0 9 0;
#X connect 9 0 10 0;
#X connect 10 0 16 0;
#X connect 11 0 12 0;
#X connect 12 0 14 0;
#X connect 13 0 0 3;
#X connect 14 0 0 2;
#X connect 15 0 0 0;
#X connect 16 0 13 0;
#X connect 17 0 18 0;
#X connect 18 0 0 1;
#X connect 19 0 0 0;
#X connect 20 0 0 0;
#X connect 21 0 0 0;
#X connect 22 0 0 0;
#X connect 23 0 0 0;
#X connect 24 0 0 0;
#X connect 25 0 2 0;
#X connect 25 0 36 0;
#X connect 25 1 2 1;
#X connect 25 1 36 1;
#X connect 26 0 25 0;
#X connect 27 0 0 0;
#X connect 28 0 0 0;
#X connect 29 0 25 0;
#X connect 30 0 25 0;
#X connect 30 1 25 1;
#X connect 31 0 32 0;
#X connect 32 0 33 0;
#X connect 33 0 34 1;
#X connect 33 0 35 1;
#X connect 34 0 30 0;
#X connect 35 0 30 1;
#X connect 37 0 36 0;
#X connect 38 0 36 0;
#X connect 39 0 36 0;
